<?xml version="1.0" encoding="iso-8859-1"?>
<!-- Generator: Adobe Illustrator 19.1.1, SVG Export Plug-In . SVG Version: 6.00 Build 0)  -->
<svg xmlns="http://www.w3.org/2000/svg" xmlns:xlink="http://www.w3.org/1999/xlink" version="1.1" id="Layer_1" x="0px" y="0px" viewBox="0 0 48 48" style="enable-background:new 0 0 48 48;" xml:space="preserve">
<path style="fill:#00C853;" d="M40.358,15.375C32.31,7.135,28.271,3,24.02,3S15.73,7.135,7.682,15.374  c-3.137,3.211-4.662,6.295-4.662,9.426s1.525,6.215,4.662,9.426C10.558,37.171,16.818,39,24.02,39c0.001,0,0,0,0,0  c7.202,0,13.463-1.829,16.338-4.773c3.137-3.211,4.662-6.295,4.661-9.426C45.02,21.669,43.495,18.586,40.358,15.375z"/>
<path style="fill:#388E3C;" d="M40.338,17C32.29,8.76,28.23,5,23.979,5S15.71,8.761,7.662,17C4.525,20.211,3,21.669,3,24.801  s1.525,6.215,4.662,9.426C10.537,37.171,16.798,39,24,39H24c7.202,0,13.462-1.829,16.338-4.773C43.475,31.016,45,27.932,45,24.801  C45,21.669,43.475,20.211,40.338,17z"/>
<path style="fill:#1B5E20;" d="M24,32C9.893,32,4.74,26.521,3.021,24.801c0,3.132,1.525,6.215,4.662,9.426  C10.558,37.171,16.818,39,24.02,39c0.001,0,0,0,0,0c7.202,0,13.463-1.829,16.338-4.773c3.137-3.211,4.662-6.295,4.661-9.426  C43.226,26.779,38.107,32,24,32z"/>
<path style="fill:#00C853;" d="M31.87,15.517C27.98,6.922,26.205,3,24.021,3c-2.185,0-3.96,3.923-7.85,12.517  c-2.867,6.333-2.867,12.234,0,18.567c1.372,3.032,4.38,4.916,7.85,4.916c3.469,0,6.478-1.883,7.85-4.916  C34.737,27.75,34.737,21.85,31.87,15.517z"/>
<path style="fill:#388E3C;" d="M31.085,17.517C27.584,8.922,25.987,5,24.021,5c-1.966,0-3.564,3.923-7.065,12.517  c-2.58,6.333-2.58,12.234,0,18.567C18.191,39.117,20.898,41,24.021,41c3.122,0,5.83-1.883,7.065-4.916  C33.666,29.75,33.665,23.85,31.085,17.517z"/>
<path style="fill:#69F0AE;" d="M24,17c-9.417,0-17,8.374-17,15.307C7,39.306,14.626,45,24,45s17-5.694,17-12.693  C41,25.374,33.417,17,24,17z"/>
<path style="fill:#69F0AE;" d="M37.333,17.716c-0.046-0.051-0.101-0.092-0.162-0.12c-2.302-1.048-4.557-0.69-5.61,0.89  c-0.491,0.735-0.664,1.659-0.502,2.672C31.103,21.435,35.904,25,36.134,25c0.028,0,0.057-0.003,0.086-0.008  c0.958-0.181,1.724-0.665,2.214-1.401C39.487,22.012,39.044,19.65,37.333,17.716z"/>
<path style="fill:#69F0AE;" d="M10.667,17.716c0.046-0.051,0.101-0.092,0.162-0.12c2.302-1.048,4.557-0.69,5.61,0.89  c0.491,0.735,0.664,1.659,0.502,2.672C16.897,21.435,12.096,25,11.866,25c-0.028,0-0.057-0.003-0.086-0.008  c-0.958-0.181-1.724-0.665-2.214-1.401C8.513,22.012,8.956,19.65,10.667,17.716z"/>
<g>
	<path style="fill:#00E676;" d="M41,32.583C41,39.44,33.389,45,24,45c-9.389,0-17-5.56-17-12.417C7,25.725,14.611,21,24,21   C33.389,21,41,25.725,41,32.583z"/>
</g>
<g>
	<path style="fill:#66BB6A;" d="M41.02,32.11C41.02,38.954,34.313,45,24,45C13.625,45,7.02,38.954,7.02,32.11   c0-4.422,2.163,5.839,17,5.839S41.02,27.563,41.02,32.11z"/>
</g>
<g>
	<path style="fill:#F44336;" d="M29,38.052c0,1.407-2.2,2.947-4.961,2.947S19,39.407,19,38v-1h10V38.052z"/>
</g>
<g>
	<path style="fill:#66BB6A;" d="M22.5,26c-1.38,0-2.5-1.022-2.5-2.284C20,22.455,21.741,22,23.121,22S25,22.455,25,23.716   C25,24.977,23.881,26,22.5,26z"/>
</g>
<g>
	<ellipse style="fill:#66BB6A;" cx="26.991" cy="25" rx="0.991" ry="1"/>
</g>
<g>
	<circle style="fill:#66BB6A;" cx="30.505" cy="23.5" r="0.5"/>
</g>
<g>
	<circle style="fill:#66BB6A;" cx="25.495" cy="28.5" r="0.5"/>
</g>
<g>
	<ellipse style="fill:#66BB6A;" cx="17.991" cy="25" rx="0.991" ry="1"/>
</g>
<circle style="fill:#5D4037;" cx="16" cy="31" r="3"/>
<g>
	<circle style="fill:#FFFFFF;" cx="15" cy="30" r="1"/>
</g>
<circle style="fill:#5D4037;" cx="32" cy="31" r="3"/>
<g>
	<circle style="fill:#FFFFFF;" cx="31" cy="30" r="1"/>
</g>
<circle style="fill:#36464E;" cx="22" cy="34" r="1"/>
<circle style="fill:#36464E;" cx="26" cy="34" r="1"/>
<polygon style="fill:#FFFFFF;" points="15,37 15,40 17,38 "/>
<polygon style="fill:#FFFFFF;" points="33,37 33,40 31,38 "/>
<path style="fill:none;stroke:#36464E;stroke-width:2;stroke-linecap:round;stroke-linejoin:round;stroke-miterlimit:10;" d="  M33.979,36.052c-1.042,2-9.959-0.093-9.959,1.897"/>
<path style="fill:none;stroke:#36464E;stroke-width:2;stroke-linecap:round;stroke-linejoin:round;stroke-miterlimit:10;" d="  M14.021,36.052c1.042,2,9.854-0.093,10,1.897"/>
</svg>
